<svg width="510" height="510" viewBox="0 0 510 510" fill="none" xmlns="http://www.w3.org/2000/svg">
<circle cx="99.2" cy="42.5" r="10.5" fill="#c488ff"/>
<circle cx="127.5" cy="42.5" r="10.5" fill="#be82fb"/>
<circle cx="155.8" cy="42.5" r="10.5" fill="#c68aff"/>
<circle cx="184.2" cy="42.5" r="10.5" fill="#bb7ff8"/>
<circle cx="212.5" cy="42.5" r="10.5" fill="#bc80f9"/>
<circle cx="240.8" cy="42.5" r="10.5" fill="#bd81fa"/>
<circle cx="269.2" cy="42.5" r="10.5" fill="#c589ff"/>
<circle cx="297.5" cy="42.5" r="10.5" fill="#bb7ff8"/>
<circle cx="325.8" cy="42.5" r="10.5" fill="#ca8eff"/>
<circle cx="354.2" cy="42.5" r="10.5" fill="#c084fd"/>
<circle cx="382.5" cy="42.5" r="10.5" fill="#bb7ff8"/>
<circle cx="410.8" cy="42.5" r="10.5" fill="#bc80f9"/>
<circle cx="70.8" cy="70.8" r="10.5" fill="#c78bff"/>
<circle cx="439.2" cy="70.8" r="10.5" fill="#c78bff"/>
<circle cx="42.5" cy="99.2" r="10.5" fill="#bc80f9"/>
<circle cx="467.5" cy="99.2" r="10.5" fill="#c185fe"/>
<circle cx="42.5" cy="127.5" r="10.5" fill="#bc80f9"/>
<circle cx="127.5" cy="127.5" r="10.5" fill="#edc7ff"/>
<circle cx="155.8" cy="127.5" r="10.5" fill="#e1bbfa"/>
<circle cx="184.2" cy="127.5" r="10.5" fill="#e3bdfc"/>
<circle cx="212.5" cy="127.5" r="10.5" fill="#e7c1ff"/>
<circle cx="297.5" cy="127.5" r="10.5" fill="#bb7ff8"/>
<circle cx="325.8" cy="127.5" r="10.5" fill="#c68aff"/>
<circle cx="354.2" cy="127.5" r="10.5" fill="#bb7ff8"/>
<circle cx="382.5" cy="127.5" r="10.5" fill="#c185fe"/>
<circle cx="467.5" cy="127.5" r="10.5" fill="#bb7ff8"/>
<circle cx="42.5" cy="155.8" r="10.5" fill="#be82fb"/>
<circle cx="127.5" cy="155.8" r="10.5" fill="#e9c3ff"/>
<circle cx="155.8" cy="155.8" r="10.5" fill="#edc7ff"/>
<circle cx="184.2" cy="155.8" r="10.5" fill="#e4befd"/>
<circle cx="212.5" cy="155.8" r="10.5" fill="#e3bdfc"/>
<circle cx="297.5" cy="155.8" r="10.5" fill="#c387ff"/>
<circle cx="325.8" cy="155.8" r="10.5" fill="#bf83fc"/>
<circle cx="354.2" cy="155.8" r="10.5" fill="#bd81fa"/>
<circle cx="382.5" cy="155.8" r="10.5" fill="#c084fd"/>
<circle cx="467.5" cy="155.8" r="10.5" fill="#c589ff"/>
<circle cx="42.5" cy="184.2" r="10.5" fill="#bd81fa"/>
<circle cx="127.5" cy="184.2" r="10.5" fill="#e2bcfb"/>
<circle cx="155.8" cy="184.2" r="10.5" fill="#e1bbfa"/>
<circle cx="184.2" cy="184.2" r="10.5" fill="#e6c0ff"/>
<circle cx="212.5" cy="184.2" r="10.5" fill="#efc9ff"/>
<circle cx="297.5" cy="184.2" r="10.5" fill="#c78bff"/>
<circle cx="325.8" cy="184.2" r="10.5" fill="#c488ff"/>
<circle cx="354.2" cy="184.2" r="10.5" fill="#c88cff"/>
<circle cx="382.5" cy="184.2" r="10.5" fill="#c88cff"/>
<circle cx="467.5" cy="184.2" r="10.5" fill="#c589ff"/>
<circle cx="42.5" cy="212.5" r="10.5" fill="#c387ff"/>
<circle cx="127.5" cy="212.5" r="10.5" fill="#e7c1ff"/>
<circle cx="155.8" cy="212.5" r="10.5" fill="#e5bffe"/>
<circle cx="184.2" cy="212.5" r="10.5" fill="#e7c1ff"/>
<circle cx="212.5" cy="212.5" r="10.5" fill="#e2bcfb"/>
<circle cx="297.5" cy="212.5" r="10.5" fill="#c387ff"/>
<circle cx="325.8" cy="212.5" r="10.5" fill="#ca8eff"/>
<circle cx="354.2" cy="212.5" r="10.5" fill="#c98dff"/>
<circle cx="382.5" cy="212.5" r="10.5" fill="#c488ff"/>
<circle cx="467.5" cy="212.5" r="10.5" fill="#c88cff"/>
<circle cx="42.5" cy="240.8" r="10.5" fill="#c387ff"/>
<circle cx="467.5" cy="240.8" r="10.5" fill="#bc80f9"/>
<circle cx="42.5" cy="269.2" r="10.5" fill="#bd81fa"/>
<circle cx="467.5" cy="269.2" r="10.5" fill="#ca8eff"/>
<circle cx="42.5" cy="297.5" r="10.5" fill="#c78bff"/>
<circle cx="127.5" cy="297.5" r="10.5" fill="#bf83fc"/>
<circle cx="155.8" cy="297.5" r="10.5" fill="#c488ff"/>
<circle cx="184.2" cy="297.5" r="10.5" fill="#be82fb"/>
<circle cx="212.5" cy="297.5" r="10.5" fill="#c98dff"/>
<circle cx="297.5" cy="297.5" r="10.5" fill="#9163cb"/>
<circle cx="325.8" cy="297.5" r="10.5" fill="#8557bf"/>
<circle cx="354.2" cy="297.5" r="10.5" fill="#8658c0"/>
<circle cx="382.5" cy="297.5" r="10.5" fill="#8e60c8"/>
<circle cx="467.5" cy="297.5" r="10.5" fill="#c488ff"/>
<circle cx="42.5" cy="325.8" r="10.5" fill="#c589ff"/>
<circle cx="127.5" cy="325.8" r="10.5" fill="#c98dff"/>
<circle cx="155.8" cy="325.8" r="10.5" fill="#c88cff"/>
<circle cx="184.2" cy="325.8" r="10.5" fill="#bc80f9"/>
<circle cx="212.5" cy="325.8" r="10.5" fill="#bc80f9"/>
<circle cx="297.5" cy="325.8" r="10.5" fill="#8c5ec6"/>
<circle cx="382.5" cy="325.8" r="10.5" fill="#9365cd"/>
<circle cx="467.5" cy="325.8" r="10.5" fill="#bc80f9"/>
<circle cx="42.5" cy="354.2" r="10.5" fill="#bb7ff8"/>
<circle cx="127.5" cy="354.2" r="10.5" fill="#c387ff"/>
<circle cx="155.8" cy="354.2" r="10.5" fill="#c88cff"/>
<circle cx="184.2" cy="354.2" r="10.5" fill="#c387ff"/>
<circle cx="212.5" cy="354.2" r="10.5" fill="#c68aff"/>
<circle cx="297.5" cy="354.2" r="10.5" fill="#8f61c9"/>
<circle cx="382.5" cy="354.2" r="10.5" fill="#8456be"/>
<circle cx="467.5" cy="354.2" r="10.5" fill="#c88cff"/>
<circle cx="42.5" cy="382.5" r="10.5" fill="#c589ff"/>
<circle cx="127.5" cy="382.5" r="10.5" fill="#bf83fc"/>
<circle cx="155.8" cy="382.5" r="10.5" fill="#bd81fa"/>
<circle cx="184.2" cy="382.5" r="10.5" fill="#c98dff"/>
<circle cx="212.5" cy="382.5" r="10.5" fill="#bb7ff8"/>
<circle cx="297.5" cy="382.5" r="10.5" fill="#8a5cc4"/>
<circle cx="325.8" cy="382.5" r="10.5" fill="#8d5fc7"/>
<circle cx="354.2" cy="382.5" r="10.5" fill="#885ac2"/>
<circle cx="382.5" cy="382.5" r="10.5" fill="#8b5dc5"/>
<circle cx="467.5" cy="382.5" r="10.5" fill="#c68aff"/>
<circle cx="42.5" cy="410.8" r="10.5" fill="#c68aff"/>
<circle cx="467.5" cy="410.8" r="10.5" fill="#c98dff"/>
<circle cx="70.8" cy="439.2" r="10.5" fill="#bc80f9"/>
<circle cx="439.2" cy="439.2" r="10.5" fill="#bf83fc"/>
<circle cx="99.2" cy="467.5" r="10.5" fill="#c88cff"/>
<circle cx="127.5" cy="467.5" r="10.5" fill="#c68aff"/>
<circle cx="155.8" cy="467.5" r="10.5" fill="#c286ff"/>
<circle cx="184.2" cy="467.5" r="10.5" fill="#be82fb"/>
<circle cx="212.5" cy="467.5" r="10.5" fill="#c78bff"/>
<circle cx="240.8" cy="467.5" r="10.5" fill="#c286ff"/>
<circle cx="269.2" cy="467.5" r="10.5" fill="#c78bff"/>
<circle cx="297.5" cy="467.5" r="10.5" fill="#c589ff"/>
<circle cx="325.8" cy="467.5" r="10.5" fill="#c68aff"/>
<circle cx="354.2" cy="467.5" r="10.5" fill="#c185fe"/>
<circle cx="382.5" cy="467.5" r="10.5" fill="#be82fb"/>
<circle cx="410.8" cy="467.5" r="10.5" fill="#bc80f9"/>
</svg>
